<?xml version="1.0" encoding="UTF-8"?>
<svg version="1.1" viewBox="0 0 2000 2000" width="1280" height="1280" xmlns="http://www.w3.org/2000/svg">
<path transform="translate(986,478)" d="m0 0h33l46 3 33 5 33 7 40 12 26 10 27 11 16 7 25 14 24 15 20 14 14 10 17 13 12 11 10 9 8 9 2 1v2l4 2 15 14 9 10 7 8 8 9 10 14 14 18 12 18 9 15 10 17 14 30 14 32 10 30 8 28 5 23 4 26 2 19 1 22v56l-2 36-4 30-8 37-13 42-8 21-15 34-7 16-14 24-10 16-13 19-11 14-10 14-11 12-7 8-9 10-7 7-11 9-11 12-12 11-11 9-17 13-11 7-14 10-21 13-27 15-17 9-21 8-24 10-24 8-39 11-43 8-37 4-39 1-30-1-29-3-25-4-30-6-28-8-36-12-27-11-13-5-16-8-15-8-30-18-18-12-16-11-14-11-11-9-14-12-8-7-7-8-13-12-8-8-9-11-13-15-14-19-14-20-12-20-14-24-9-19-10-25-8-19-9-27-9-34-6-31-5-35-1-16v-64l1-23 5-35 6-30 10-36 9-27 10-24 9-22 11-21 12-20 10-15 13-19 9-12 11-14 11-13 44-44 11-9 13-11 20-14 16-12 21-13 25-15 25-12 24-10 27-10 25-8 27-7 30-6 38-5zm-11 65-31 3-24 4-28 6-25 7-37 13-22 9-31 16-19 12-17 12-16 11-12 9-14 12-47 47-9 11-8 11-8 12-14 19-8 13-16 29-6 13-14 36-9 27-9 34-4 21-4 30-1 19v34l2 32 5 33 6 27 9 31 10 27 8 20 11 23 10 18 12 19 13 18 10 14 11 14 13 15 11 11 8 7 5 5h2v2l8 7 9 9 11 9 14 10 19 13 10 7 15 9 24 13 23 11 24 9 21 8 38 11 29 6 31 4 12 1h56l36-4 35-7 28-8 26-9 23-9 13-5 16-8 24-13 33-22 19-13 13-11 8-7 16-15 35-35 13-18 9-12 14-18 12-20 11-19 18-41 10-26 8-25 7-30 5-30 3-36v-33l-3-39-6-36-7-28-6-19-10-27-18-40-10-19-14-22-10-13-15-20-13-17-31-31-8-7-15-14-15-12-11-7-17-12-15-10-21-12-28-14-39-15-31-10-29-7-23-4-24-3-14-1z" fill="#D6DFE0"/>
<path transform="translate(990,668)" d="m0 0h37l23 2 26 3 19 5 25 6 22 8 24 11 22 11 12 9 17 12 18 13 13 11 8 8 9 11 10 11 9 11 10 12 9 15 15 28 10 18 13 33 7 29 4 24 2 33v12l-2 3 1 1v12l-2 25-5 25-9 31-8 20-6 14-13 23-9 17-11 16-14 17-9 11-15 16-7 8-7 7-13 10-11 9-18 13-14 10-20 11-26 11-26 10-25 7-19 4-26 4-13 1h-46l-21-2-28-5-27-7-33-11-21-9-23-11-15-9-16-12-14-11-22-18-10-10-8-10-11-13-13-17-8-11-13-23-15-33-9-27-7-28-4-24-2-20-1-17v-15l2-26 4-26 6-25 11-33 13-30 11-21 14-21 7-9 8-9 11-14 11-12 11-11 8-7 11-8 16-13 17-12 22-13 16-8 14-6 37-12 23-6 25-4 17-2zm-1 52-28 3-26 5-18 5-31 11-23 10-22 14-17 12-11 9-5 4-7 8-15 14-11 12-12 16-12 19-14 28-10 25-8 28-5 26-2 14-1 20v13l2 23 4 25 6 23 9 27 11 23 10 19 11 18 12 15 7 8 8 8 7 8 13 13 17 13 16 10 25 13 19 7 16 3h15l13-5 14-9 14-11 7-8 6-11 8-20 4-16 1-7v-13l-5-3-22-5-24-8-16-8-20-12-10-8-10-9-9-11-7-10-10-17-8-19-6-20-5-25-1-9v-64l15-1 52-1 3-3 1-27v-71l1-12 4-7 8-7 5-2h13l8 3 5 5 3 5 1 4 1 111 4 1h93l4-1 1-2 1-27 1-83 5-8 7-6 6-2h12l8 3 6 5 4 7 1 4 1 108 3 1 60 1 9 2-1 59-3 24-6 25-8 21-9 16-10 15-8 11-9 10-12 10-17 11-18 10-20 8-19 6-2 6-4 27-6 23-6 16-9 15-9 11-9 10-10 9 2 2 27 2 23-2 30-5 20-5 25-9 26-12 19-10 14-9 13-10 10-9 15-14 16-16 11-14 9-12 8-14 12-22 8-19 2-5 7-2 1-2h-8l3-10 4-17 3-14 4-28 1-27-1-24-5-32-2-10v-8l-4-9-9-24-8-18-15-28-11-18-11-13-19-19-8-7-11-11-17-12-21-13-16-9-24-9-33-11-23-6-30-3zm334 392 2 4 3-1v-3z" fill="#D6DFE0"/>
<path transform="translate(1048,671)" d="m0 0h13l15 2 19 5 25 6 22 8 24 11 22 11 12 9 17 12 18 13 13 11 8 8 9 11 10 11 9 11 10 12 9 15 15 28 10 18 13 33 2 7v4l-15 5-28 6-13 3-7-1-4-9-9-24-8-18-15-28-11-18-11-13-18-18-8-7-11-11-17-12-21-13-16-9-24-9-33-11-27-7-2-2 1-14 1-10z" fill="#4F696C"/>
<path transform="translate(1341,917)" d="m0 0h3l7 34 2 24 1 26-1 5v2 12l-2 25-5 25-9 31-7 18-16-4-27-8-10-3 4-3-7-1 2-10 4-17 3-14 4-28 1-27-1-24-5-32-2-10v-6l2-2 10-1 21-5 22-5zm-18 195 2 4 3-1v-3z" fill="#B6BBBA"/>
<path transform="translate(1183,713)" d="m0 0 5 1 12 9 17 12 18 13 13 11 8 8 9 11 10 11 9 11 10 12 9 15 15 28 10 18 13 33 2 7v4l-15 5-28 6-13 3-7-1-4-9-9-24-8-18-15-28-11-18-11-13-7-7-1-8-2-1h2l-1-5 3-3 4-11 4-2 2-7 6-8 3-5v-7h-3l-2-3h-2v-2l-4-2-9-8-9-6-10-9-6-4v-2l-4-1v-2l-3-1z" fill="#1F686E"/>
<path transform="translate(1279,1094)" d="m0 0 6 1 8 4 25 6 14 4-1 8-1 2-16-4-27-8-10-3 4-3-4-2zm44 18 2 4 3-1v-3z" fill="#516B6E"/>
<path transform="translate(992,668)" d="m0 0h35l23 2-2 1v26l-2 18v6l1 2h-6l-1-4 2-3 1-9v-29h-2l-1-2-8-4-4-1-33-1z" fill="#B6BBBA"/>
<path transform="translate(1281,1098)" d="m0 0 4 1 10 5 9 3 12 3 6 2v2h2v2h-7l-23-7-15-4-2-2 6-1v-3z" fill="#28686E"/>
<path transform="translate(1275,1103)" d="m0 0 12 3 27 8 14 4 1 3-3 6h-4v-3h-2l-4-6-13-5-15-4-10-2v-2h-3z" fill="#B6BBBA"/>
<path transform="translate(1132,689)" d="m0 0 10 3 24 11 7 4-1 3-5-2-8-4v-2l-7-1-15-7-3-1v-2h-2z" fill="#2F6E73"/>
<path transform="translate(606,1335)" d="m0 0 1 2h2v2l5 2 2 4 4 2 8 8 4 5-1 2-5-2-14-14-7-9z" fill="#F8F9F9"/>
<path transform="translate(1367,626)" d="m0 0 5 3v2l4 2 15 14 5 7-5-2-9-9-6-5v-2h-2v-2l-3-1-4-5z" fill="#FDFDFD"/>
<path transform="translate(1331,676)" d="m0 0 5 3 8 7v2l3 1 5 8h-3l-19-19z" fill="#FCFCFC"/>
<path transform="translate(646,1376)" d="m0 0 5 2 12 12 4 6-4-2-15-13-3-2z" fill="#FCFCFC"/>
<path transform="translate(1346,606)" d="m0 0 4 2 13 12v3l-5-3-6-6v-2h-2l-4-4z" fill="#FBFBFB"/>
<path transform="translate(1159,701)" d="m0 0 5 1 9 5-1 3-5-2-8-4z" fill="#307075"/>
<path transform="translate(1301,571)" d="m0 0 11 7 2 3h-5l-5-3-3-4z" fill="#FBFBFB"/>
<path transform="translate(1087,677)" d="m0 0 13 2v3l-8-1-5-2z" fill="#367276"/>
</svg>
